<svg width="142" height="57" viewBox="0 0 142 57" fill="none" xmlns="http://www.w3.org/2000/svg">
<path d="M34.72 12.4C34.72 14.6667 33.92 16.6267 32.32 18.28C30.72 19.9067 28.3867 21.08 25.32 21.8C26.9733 22.2533 28.2267 23 29.08 24.04C29.9333 25.0533 30.36 26.2267 30.36 27.56C30.36 29.6667 29.6933 31.4933 28.36 33.04C27.0533 34.5867 25.1333 35.7867 22.6 36.64C20.0667 37.4667 17.0133 37.88 13.44 37.88C12.1067 37.88 11.04 37.84 10.24 37.76C10.2133 38.5067 9.89333 39.0667 9.28 39.44C8.66667 39.8133 7.88 40 6.92 40C5.96 40 5.29333 39.7867 4.92 39.36C4.57333 38.9333 4.42667 38.3067 4.48 37.48C4.72 33.7467 5.18667 29.84 5.88 25.76C6.57333 21.6533 7.45333 17.6933 8.52 13.88C8.70667 13.2133 9.08 12.7467 9.64 12.48C10.2 12.2133 10.9333 12.08 11.84 12.08C13.4667 12.08 14.28 12.5333 14.28 13.44C14.28 13.8133 14.2 14.24 14.04 14.72C13.3467 16.8 12.6533 19.6267 11.96 23.2C11.2667 26.7467 10.7733 30.1333 10.48 33.36C11.76 33.4667 12.8 33.52 13.6 33.52C17.3333 33.52 20.0667 32.9867 21.8 31.92C23.56 30.8267 24.44 29.44 24.44 27.76C24.44 26.5867 23.9333 25.6 22.92 24.8C21.9333 24 20.2667 23.56 17.92 23.48C17.3867 23.4533 17.0133 23.32 16.8 23.08C16.5867 22.84 16.48 22.4533 16.48 21.92C16.48 21.1467 16.64 20.52 16.96 20.04C17.28 19.56 17.8667 19.3067 18.72 19.28C20.6133 19.2267 22.32 18.9467 23.84 18.44C25.3867 17.9333 26.6 17.2267 27.48 16.32C28.36 15.3867 28.8 14.3067 28.8 13.08C28.8 11.5333 28.04 10.32 26.52 9.44C25 8.53333 22.6667 8.08 19.52 8.08C16.6667 8.08 13.9067 8.45333 11.24 9.2C8.57333 9.92 6.30667 10.84 4.44 11.96C3.58667 12.4667 2.86667 12.72 2.28 12.72C1.8 12.72 1.42667 12.56 1.16 12.24C0.92 11.8933 0.8 11.4667 0.8 10.96C0.8 10.2933 0.933333 9.72 1.2 9.24C1.49333 8.76 2.17333 8.21333 3.24 7.6C5.48 6.32 8.10667 5.32 11.12 4.6C14.1333 3.88 17.2133 3.52 20.36 3.52C25.1867 3.52 28.7867 4.33333 31.16 5.96C33.5333 7.58667 34.72 9.73333 34.72 12.4ZM37.0647 38.2C36.0514 38.2 35.3314 37.6667 34.9047 36.6C34.5047 35.5333 34.3047 33.8267 34.3047 31.48C34.3047 28.0133 34.798 24.72 35.7847 21.6C36.0247 20.8267 36.4114 20.2667 36.9447 19.92C37.5047 19.5467 38.278 19.36 39.2647 19.36C39.798 19.36 40.1714 19.4267 40.3847 19.56C40.598 19.6933 40.7047 19.9467 40.7047 20.32C40.7047 20.7467 40.5047 21.7067 40.1047 23.2C39.838 24.2667 39.6247 25.2 39.4647 26C39.3047 26.8 39.1714 27.7867 39.0647 28.96C39.9447 26.6667 40.9314 24.8 42.0247 23.36C43.118 21.92 44.1847 20.8933 45.2247 20.28C46.2914 19.6667 47.2647 19.36 48.1447 19.36C49.878 19.36 50.7447 20.2267 50.7447 21.96C50.7447 22.3067 50.6247 23.1467 50.3847 24.48C50.1714 25.5467 50.0647 26.2133 50.0647 26.48C50.0647 27.4133 50.398 27.88 51.0647 27.88C51.8114 27.88 52.7714 27.2933 53.9447 26.12C54.2914 25.7733 54.6514 25.6 55.0247 25.6C55.3714 25.6 55.638 25.76 55.8247 26.08C56.038 26.3733 56.1447 26.7733 56.1447 27.28C56.1447 28.2667 55.878 29.04 55.3447 29.6C54.598 30.3733 53.718 31.04 52.7047 31.6C51.718 32.1333 50.6647 32.4 49.5447 32.4C48.1314 32.4 47.0514 32.04 46.3047 31.32C45.5847 30.6 45.2247 29.6267 45.2247 28.4C45.2247 28 45.2647 27.6 45.3447 27.2C45.398 26.6667 45.4247 26.3067 45.4247 26.12C45.4247 25.6933 45.278 25.48 44.9847 25.48C44.5847 25.48 44.0514 25.9333 43.3847 26.84C42.7447 27.72 42.1047 28.8933 41.4647 30.36C40.8247 31.8267 40.3047 33.3733 39.9047 35C39.6114 36.2533 39.2647 37.1067 38.8647 37.56C38.4914 37.9867 37.8914 38.2 37.0647 38.2ZM59.1878 38.2C57.6145 38.2 56.2678 37.8133 55.1478 37.04C54.0545 36.24 53.2278 35.2 52.6678 33.92C52.1078 32.64 51.8278 31.2667 51.8278 29.8C51.8278 27.7733 52.2011 25.9733 52.9478 24.4C53.7211 22.8 54.7611 21.56 56.0678 20.68C57.3745 19.7733 58.8411 19.32 60.4678 19.32C62.0411 19.32 63.3878 19.72 64.5078 20.52C65.6278 21.2933 66.4678 22.32 67.0278 23.6C67.5878 24.88 67.8678 26.2533 67.8678 27.72C67.8678 29.7467 67.4811 31.56 66.7078 33.16C65.9345 34.7333 64.8811 35.9733 63.5478 36.88C62.2411 37.76 60.7878 38.2 59.1878 38.2ZM59.6278 33.88C60.5345 33.88 61.2945 33.3867 61.9078 32.4C62.5478 31.4133 62.8678 29.9733 62.8678 28.08C62.8678 26.6133 62.6011 25.5067 62.0678 24.76C61.5345 24.0133 60.8945 23.64 60.1478 23.64C59.1878 23.64 58.3878 24.1333 57.7478 25.12C57.1345 26.08 56.8278 27.52 56.8278 29.44C56.8278 30.96 57.0945 32.08 57.6278 32.8C58.1611 33.52 58.8278 33.88 59.6278 33.88ZM77.7975 39.08C76.4108 39.08 75.3442 38.76 74.5975 38.12C73.8775 37.48 73.5175 36.76 73.5175 35.96C73.5175 35.2667 73.7708 34.6667 74.2775 34.16C74.7842 33.6533 75.5308 33.4 76.5175 33.4C76.8642 33.4 77.2642 33.44 77.7175 33.52C78.1975 33.5733 78.5575 33.6133 78.7975 33.64C78.7708 32.9467 78.6108 32.2933 78.3175 31.68C78.0508 31.0667 77.7042 30.48 77.2775 29.92C76.8508 29.3333 76.4508 28.8267 76.0775 28.4C75.2508 29.9733 74.4242 31.28 73.5975 32.32C72.7975 33.36 71.9175 34.3467 70.9575 35.28C70.4775 35.76 69.9708 36 69.4375 36C69.0108 36 68.6642 35.8533 68.3975 35.56C68.1308 35.24 67.9975 34.8533 67.9975 34.4C67.9975 33.8667 68.1842 33.3733 68.5575 32.92L69.0775 32.28C70.5442 30.4667 71.6508 28.9733 72.3975 27.8C72.8508 27.0267 73.3842 26 73.9975 24.72C74.6108 23.4133 75.2108 22.0667 75.7975 20.68C76.3042 19.5067 77.3575 18.92 78.9575 18.92C79.7042 18.92 80.2242 18.9867 80.5175 19.12C80.8108 19.2533 80.9575 19.4667 80.9575 19.76C80.9575 19.92 80.9042 20.1733 80.7975 20.52C80.6908 20.8667 80.5442 21.2133 80.3575 21.56C79.8775 22.52 79.6375 23.3333 79.6375 24C79.6375 24.4 79.7708 24.84 80.0375 25.32C80.3308 25.8 80.7708 26.4 81.3575 27.12C82.2108 28.24 82.8508 29.2 83.2775 30C83.7308 30.7733 83.9575 31.6267 83.9575 32.56C83.9575 32.8267 83.9308 33.2 83.8775 33.68C85.1842 33.1733 86.7175 31.8267 88.4775 29.64C88.7975 29.2667 89.1575 29.08 89.5575 29.08C89.9042 29.08 90.1708 29.24 90.3575 29.56C90.5708 29.88 90.6775 30.32 90.6775 30.88C90.6775 31.8933 90.4242 32.72 89.9175 33.36C88.5842 35.0133 87.3042 36.1467 86.0775 36.76C84.8775 37.3467 83.3842 37.6667 81.5975 37.72C80.5308 38.6267 79.2642 39.08 77.7975 39.08ZM109.628 29.08C109.974 29.08 110.241 29.24 110.428 29.56C110.641 29.88 110.748 30.32 110.748 30.88C110.748 31.9467 110.494 32.7733 109.988 33.36C108.761 34.7733 107.494 35.9333 106.188 36.84C104.908 37.7467 103.441 38.2 101.788 38.2C100.428 38.2 99.4011 37.8133 98.7078 37.04C98.0145 36.24 97.6678 35.0933 97.6678 33.6C97.6678 32.8533 97.8545 31.52 98.2278 29.6C98.5745 27.92 98.7478 26.76 98.7478 26.12C98.7478 25.6933 98.6011 25.48 98.3078 25.48C97.9611 25.48 97.4678 25.9333 96.8278 26.84C96.1878 27.72 95.5478 28.8933 94.9078 30.36C94.2678 31.8267 93.7478 33.3733 93.3478 35C92.8411 37.1333 91.5878 38.2 89.5878 38.2C88.7878 38.2 88.2545 37.92 87.9878 37.36C87.7478 36.7733 87.6278 35.7333 87.6278 34.24C87.6278 33.3867 87.6411 32.7067 87.6678 32.2L87.7078 29C87.7078 24.8933 88.1211 20.6133 88.9478 16.16C89.8011 11.7067 91.0411 7.97333 92.6678 4.96C94.3211 1.92 96.2945 0.399998 98.5878 0.399998C99.8145 0.399998 100.801 0.933331 101.548 2C102.321 3.04 102.708 4.4 102.708 6.08C102.708 8.77333 101.921 11.5733 100.348 14.48C98.7745 17.36 96.2145 20.7333 92.6678 24.6C92.5878 25.9867 92.5478 27.4133 92.5478 28.88C93.4278 26.6133 94.4011 24.7733 95.4678 23.36C96.5611 21.92 97.6278 20.8933 98.6678 20.28C99.7345 19.6667 100.708 19.36 101.588 19.36C103.321 19.36 104.188 20.2267 104.188 21.96C104.188 23 103.894 24.88 103.308 27.6C102.801 29.92 102.548 31.4533 102.548 32.2C102.548 33.2667 102.934 33.8 103.708 33.8C104.241 33.8 104.868 33.48 105.588 32.84C106.334 32.1733 107.321 31.1067 108.548 29.64C108.868 29.2667 109.228 29.08 109.628 29.08ZM97.7478 4.36C97.2678 4.36 96.7345 5.05333 96.1478 6.44C95.5611 7.8 94.9878 9.65333 94.4278 12C93.8945 14.32 93.4545 16.8533 93.1078 19.6C94.7611 17.6533 96.1211 15.5333 97.1878 13.24C98.2811 10.9467 98.8278 8.86667 98.8278 7C98.8278 6.14667 98.7345 5.49333 98.5478 5.04C98.3611 4.58667 98.0945 4.36 97.7478 4.36ZM127.906 25.72C128.253 25.72 128.519 25.8933 128.706 26.24C128.893 26.5867 128.986 27.0267 128.986 27.56C128.986 28.84 128.599 29.6 127.826 29.84C126.226 30.4 124.466 30.72 122.546 30.8C122.039 33.04 121.039 34.84 119.546 36.2C118.053 37.5333 116.359 38.2 114.466 38.2C112.866 38.2 111.493 37.8133 110.346 37.04C109.226 36.2667 108.373 35.24 107.786 33.96C107.199 32.68 106.906 31.2933 106.906 29.8C106.906 27.7733 107.293 25.9733 108.066 24.4C108.839 22.8 109.906 21.56 111.266 20.68C112.626 19.7733 114.133 19.32 115.786 19.32C117.813 19.32 119.439 20.0267 120.666 21.44C121.919 22.8267 122.653 24.5467 122.866 26.6C124.119 26.52 125.613 26.2533 127.346 25.8C127.559 25.7467 127.746 25.72 127.906 25.72ZM114.786 33.96C115.639 33.96 116.373 33.6133 116.986 32.92C117.626 32.2267 118.053 31.2267 118.266 29.92C117.439 29.36 116.799 28.6267 116.346 27.72C115.919 26.8133 115.706 25.8533 115.706 24.84C115.706 24.4133 115.746 23.9867 115.826 23.56H115.626C114.559 23.56 113.666 24.08 112.946 25.12C112.253 26.1333 111.906 27.5733 111.906 29.44C111.906 30.9067 112.186 32.0267 112.746 32.8C113.333 33.5733 114.013 33.96 114.786 33.96ZM141.393 25.8C141.393 27.9067 140.899 29.9067 139.913 31.8C138.953 33.6667 137.659 35.1867 136.033 36.36C134.433 37.5333 132.713 38.1467 130.873 38.2C130.526 43.3467 129.739 47.64 128.513 51.08C127.286 54.5467 125.486 56.28 123.113 56.28C121.673 56.28 120.606 55.76 119.913 54.72C119.219 53.68 118.873 52.24 118.873 50.4C118.873 47.7867 119.473 44.7333 120.673 41.24C121.873 37.7733 123.726 33.9467 126.233 29.76C126.233 25.8667 126.206 23.16 126.153 21.64C126.126 20.8667 126.433 20.2533 127.073 19.8C127.713 19.3467 128.513 19.12 129.473 19.12C130.033 19.12 130.433 19.24 130.673 19.48C130.939 19.6933 131.086 20.1333 131.113 20.8C131.113 21.4667 131.126 21.96 131.153 22.28C132.006 21.2133 132.846 20.4533 133.673 20C134.499 19.52 135.379 19.28 136.313 19.28C137.806 19.28 139.019 19.88 139.953 21.08C140.913 22.28 141.393 23.8533 141.393 25.8ZM131.073 34.36C132.033 34.1467 132.913 33.6267 133.713 32.8C134.539 31.9467 135.193 30.9067 135.673 29.68C136.153 28.4267 136.393 27.12 136.393 25.76C136.393 24.96 136.233 24.36 135.913 23.96C135.593 23.5333 135.166 23.32 134.633 23.32C133.673 23.32 132.513 24.3333 131.153 26.36C131.126 27.5333 131.113 29.2533 131.113 31.52C131.113 32.7467 131.099 33.6933 131.073 34.36ZM123.433 52.36C124.153 52.36 124.753 50.7867 125.233 47.64C125.713 44.52 126.019 40.6267 126.153 35.96C125.006 38.6267 124.099 41.1733 123.433 43.6C122.766 46.0267 122.433 48.0667 122.433 49.72C122.433 50.5733 122.539 51.2267 122.753 51.68C122.939 52.1333 123.166 52.36 123.433 52.36Z" fill="#AD00FF"/>
</svg>
